<svg width="108" height="141" viewBox="0 0 108 141" fill="none" xmlns="http://www.w3.org/2000/svg">
<path d="M88 81.8C82.1 74 72.7 65.2 68.5 63.5C61.5 60.6 61.4 60.6 59.6 65.5C57.8 70 56.7 70.9 55.4 68.9C55 68.2 53 68 50.5 68.3L46.2 68.7L46.7 65.1C46.8 62.6 47.3 57.7 47.2 57.3C46.2 47.3 58.7 18.4 66.7 12C69.3 10 69 8 66.3 8C63.6 8 55.6 17.2 52.2 24.1C48.6 31.6 44.7 43 42.3 53.2C41.2 58 40.5 59.7 40.2 58.1C39.8 55.9 39.5 55.8 34.4 56.3C31.2 56.6 29.2 56.5 29.5 55.9C29.9 55.4 31 55 32 55C33.5 55 34 53.9 34.6 48.3C35.6 38.8 34.5 28 31.5 16.6C28.6 5.6 27.7 3.4 25.2 2.1C22.8 0.900002 18.9 2.5 19.6 4.5C19.9 5.3 20.6 6 21.1 6C21.6 6 22.7 8.5 23.6 11.6C24.9 16.1 25.1 20.3 24.7 32.9C24.4 41.5 24 49.4 23.7 50.5C23.4 51.6 23.1 53.3 23.1 54.2C23 55.3 22.2 56 21.1 56C18.9 56 13 60.6 13 62.3C13 63 12.4 64.7 11.6 66.1C10.3 68.6 2.1 88.5 1.8 90.5C0.800001 95.4 1.7 103.8 3.3 106.4C5.1 109 9.3 110 10.5 108C10.8 107.4 11.6 107 12.2 107C12.8 107 12.5 107.9 11.5 109C9.7 110.9 9.8 111 13.6 112.6C19.6 115.1 27.7 114 37.2 109.3C41.5 107.1 45 105.7 45 106.1C45 107.3 38.9 110.6 32.3 113C25.2 115.6 25.2 115.9 31.9 122.5C36.4 126.8 37.1 130 34.4 133.8C33 135.8 33 136.1 34.5 136.6C35.4 137 38.4 137 41.2 136.7C44.9 136.2 46.7 135.4 47.9 133.8C51.2 129.1 51.2 128.2 47.2 126.9C45.2 126.3 42.4 124.8 41.2 123.6C38.5 121.3 35.5 116 36.7 116C37.2 116 38.4 117.5 39.4 119.4C40.5 121.5 42.5 123.3 44.4 124C46.1 124.6 48.3 125.6 49.4 126.2C51.1 127.1 51.2 126.9 50.8 124.1C50.6 122.4 50.7 121 51.2 121C52 121 52.4 124.6 52 128.5C51.9 129.6 50.8 132.1 49.4 134C47.2 137.2 47.1 137.6 48.7 138.7C51.2 140.6 54 140.2 58.5 137.5C60.7 136.1 63.7 135 65.3 135C66.8 135 68 134.6 68 134.1C68 133.6 68.7 132.5 69.5 131.7C70.8 130.3 70.7 129.5 68.4 124.3C64.8 116.4 65.3 108.4 69.5 104C71.1 102.3 73.1 101 73.9 101C74.8 101 74.1 101.9 72.2 103.2C68.4 105.9 66.5 111.5 67.5 116.9C68.5 122.1 71.9 129.8 73.6 130.4C76 131.3 75.1 132.7 72.5 132.2C70.5 131.9 70 132.2 70 133.9C70 135 71.1 136.7 72.4 137.5C78.2 141.3 88.3 140 93.2 134.8C94.2 133.6 96.3 130.1 96.6 129C96.9 127.6 97.9 122.8 98.8 118.2C99.6 114.3 99 107.8 99 106.5C99 101.8 93.1 88.6 88 81.8ZM40.6 94C37.8 94 37.1 88.6 39.6 85.9C41.4 83.9 43.7 84.4 44.3 86.8C44.8 89.1 42.3 94 40.6 94Z" fill="#CCCCCC"/>
<path d="M104.2 88.7C103.5 87.9 98.6 81.2 95.6 85.2C94 87.3 94.3 88.1 97 95C98.6 99.1 100.4 102.4 100.9 102.3C101.1 102.2 101.3 102.3 101.4 102.4C102.6 101 104.5 99.4 105.3 98.8C106.7 97.6 106 94.1 106 93.7C106 92.8 105 89.6 104.2 88.7Z" fill="#FFF8BF"/>
<path d="M53.7 36.5C51.8 41.4 49.6 48.9 48.9 53C48.6 54.9 48.2 60.2 48 63.8C47.9 66.7 48.3 67 50.9 67C52.5 67 54.5 67.3 55.3 67.6C57.2 68.3 59.5 63.3 64.5 48C69.3 33 72.7 11 70.2 11C67.1 11 58.2 24.7 53.7 36.5Z" fill="#FFF8BF"/>
<path d="M18.4 55C21.5 54.9 22.1 53 23.1 40.4C24.3 25.8 23.6 14.1 21.3 9.30001C19.1 4.50001 18.2 4.40001 16.3 8.70001C13.7 14.3 13.4 33.4 15.5 45.5C16.5 50.9 17.7 55 18.4 55Z" fill="#FFF8BF"/>
<path d="M39.6 85.9C37.1 88.6 37.8 94 40.6 94C42.3 94 44.8 89.1 44.3 86.8C43.7 84.4 41.4 83.9 39.6 85.9Z" fill="#141414"/>
<path d="M106.9 93.7C106.9 93.4 106.9 93 106.9 92.7C106.9 92.6 106.9 92.4 106.9 92.2C107 90.3 104 85.3 104 85C104.1 85 104.1 85.1 104.2 85.1C106.3 86.2 106.4 86.2 105.1 84.7C104.1 83.5 102 82.9 100.4 83.1C100.4 83 100.5 82.9 100.5 82.8C100.5 82.5 100.2 82.2 99.8 82.1C100.4 81.9 101.1 81.7 101.6 81.5C102.5 81.2 103 80.7 102.7 80.3C101.7 79.3 96 82.1 94.4 84.4C92.9 86.5 92.9 86.5 91.8 84.5C91.2 83.4 86.2 78 80.6 72.5C73.1 65 69.4 62 66.3 61C63.9 60.3 62 59.5 62 59.4C62 59.2 62.9 56.6 64.1 53.6C68 43 71 30.4 71.6 21.4C72.2 13.7 72 11.9 70.5 9.7C65 1.2 53 14.7 45 38.4C43.5 43 41.9 48.6 41.5 50.9C40.9 54.6 40.5 55 38 55C34.9 55 34.8 54.9 36.5 44.9C38 35.9 31.8 7.5 27.3 2.8C24.1 -0.599998 22.1 -0.699999 19.1 2.1C15.6 5.4 13 12.6 12.3 20.7C11.7 28.5 13.3 44.5 15.5 51.6C16.6 55.5 16.6 56.1 14.9 57.6C13.9 58.5 12.3 61.3 11.4 63.7L9.7 68.2C9.7 68.2 1.6 85 1.2 86.9C-3.27826e-06 92.8 0.0999967 103.8 1.2 106C3.2 109.7 14.5 115.3 20.2 115.4C22.9 115.5 25 115.8 25 116.2C25 116.6 27.2 119.5 30 122.5C32.7 125.5 35 128.5 35 129.1C35 129.7 34.2 131.5 33.3 133.1C30.9 137.1 32.5 138.4 39.6 138.2C43.2 138.1 46 138.6 47.3 139.5C50.4 141.7 54.3 141.3 59.6 138.5C65.3 135.5 67.3 135.4 70.8 138C76.7 142.4 88 141.8 93 136.9C94.6 135.2 96 133.4 96 132.8C98 128.8 100.9 108.6 100.6 108.1C100.2 107.7 100.4 106.4 100.8 105.1C101.4 105.4 102.6 104.7 103.4 103.7C104.4 102.4 104.9 102.2 105.2 103.2C105.5 103.9 106.2 102.8 106.9 100.6C108 97.5 108 96.7 106.7 95.4C106.8 95 106.9 94.4 106.9 93.7ZM70.2 11C72.7 11 69.3 33 64.5 48C59.5 63.3 57.2 68.3 55.3 67.6C54.5 67.3 52.5 67 50.9 67C48.3 67 47.9 66.7 48 63.8C48.2 60.2 48.6 54.9 48.9 53C49.6 48.9 51.8 41.4 53.7 36.5C58.2 24.7 67.1 11 70.2 11ZM15.5 45.5C13.4 33.4 13.7 14.3 16.3 8.7C18.2 4.4 19.1 4.5 21.3 9.3C23.6 14.1 24.3 25.8 23.1 40.4C22.1 53 21.5 54.9 18.4 55C17.7 55 16.5 50.9 15.5 45.5ZM98.8 118.2C97.9 122.8 96.9 127.6 96.6 129C96.3 130.1 94.2 133.6 93.2 134.8C88.3 140 78.2 141.3 72.4 137.5C71.1 136.7 70 135 70 133.9C70 132.2 70.5 131.9 72.5 132.2C75.1 132.7 76 131.3 73.6 130.4C71.9 129.8 68.5 122.1 67.5 116.9C66.5 111.5 68.4 105.9 72.2 103.2C74.1 101.9 74.8 101 73.9 101C73.1 101 71.1 102.3 69.5 104C65.3 108.4 64.8 116.4 68.4 124.3C70.7 129.5 70.8 130.3 69.5 131.7C68.7 132.5 68 133.6 68 134.1C68 134.6 66.8 135 65.3 135C63.7 135 60.7 136.1 58.5 137.5C54 140.2 51.2 140.6 48.7 138.7C47.1 137.6 47.2 137.2 49.4 134C50.8 132.1 51.9 129.6 52 128.5C52.4 124.6 52 121 51.2 121C50.7 121 50.6 122.4 50.8 124.1C51.2 126.9 51.1 127.1 49.4 126.2C48.3 125.6 46.1 124.6 44.4 124C42.5 123.3 40.5 121.5 39.4 119.4C38.4 117.5 37.2 116 36.7 116C35.5 116 38.5 121.3 41.2 123.6C42.4 124.8 45.2 126.3 47.2 126.9C51.2 128.2 51.2 129.1 47.9 133.8C46.7 135.4 44.9 136.2 41.2 136.7C38.4 137 35.4 137 34.5 136.6C33 136.1 33 135.8 34.4 133.8C37.1 130 36.4 126.8 31.9 122.5C25.2 115.9 25.2 115.6 32.3 113C38.9 110.6 45 107.3 45 106.1C45 105.7 41.5 107.1 37.2 109.3C27.7 114 19.6 115.1 13.6 112.6C9.8 111 9.7 110.9 11.5 109C12.5 107.9 12.8 107 12.2 107C11.6 107 10.8 107.4 10.5 108C9.3 110 5.1 109 3.3 106.4C1.7 103.8 0.800003 95.4 1.8 90.5C2.1 88.5 10.3 68.6 11.6 66.1C12.4 64.7 13 63 13 62.3C13 60.6 18.9 56 21.1 56C22.2 56 23 55.3 23.1 54.2C23.1 53.3 23.4 51.6 23.7 50.5C24 49.4 24.4 41.5 24.7 32.9C25.1 20.3 24.9 16.1 23.6 11.6C22.7 8.5 21.6 6 21.1 6C20.6 6 19.9 5.3 19.6 4.5C18.9 2.5 22.8 0.900001 25.2 2.1C27.7 3.4 28.6 5.6 31.5 16.6C34.5 28 35.6 38.8 34.6 48.3C34 53.9 33.5 55 32 55C31 55 29.9 55.4 29.5 55.9C29.2 56.5 31.2 56.6 34.4 56.3C39.5 55.8 39.8 55.9 40.2 58.1C40.5 59.7 41.2 58 42.3 53.2C44.7 43 48.6 31.6 52.2 24.1C55.6 17.2 63.6 8 66.3 8C69 8 69.3 10 66.7 12C58.7 18.4 46.2 47.3 47.2 57.3C47.3 57.7 46.8 62.6 46.7 65.1L46.2 68.7L50.5 68.3C53 68 55 68.2 55.4 68.9C56.7 70.9 57.8 70 59.6 65.5C61.4 60.6 61.5 60.6 68.5 63.5C72.7 65.2 82.1 74 88 81.8C93.1 88.6 99 101.8 99 106.5C99 107.8 99.6 114.3 98.8 118.2ZM105.3 98.8C104.5 99.5 102.5 101.1 101.4 102.4C101.3 102.3 101.2 102.2 100.9 102.3C100.4 102.4 98.6 99.1 97 95C94.3 88.1 94 87.3 95.6 85.2C98.6 81.2 103.5 87.9 104.2 88.7C105 89.6 106 92.8 106 93.7C106 94.1 106.7 97.6 105.3 98.8Z" fill="#333333"/>
<path d="M41.2 89.3C41.8075 89.3 42.3 88.5837 42.3 87.7C42.3 86.8163 41.8075 86.1 41.2 86.1C40.5925 86.1 40.1 86.8163 40.1 87.7C40.1 88.5837 40.5925 89.3 41.2 89.3Z" fill="white"/>
</svg>
