<svg width="513" height="513" viewBox="0 0 513 513" fill="none" xmlns="http://www.w3.org/2000/svg">
<g clip-path="url(#clip0_2_11)">
<path d="M452.452 88.076C472.852 82.476 492.452 80.876 508.452 84.076C496.852 104.076 473.252 123.676 443.252 137.676C422.452 147.276 401.652 152.076 383.252 153.276L380.452 146.876L452.452 88.076Z" fill="#7CB342"/>
<path d="M382.852 156.876C380.852 156.876 378.852 155.276 378.852 152.876C378.852 150.476 380.452 148.876 382.852 148.876C401.652 148.076 422.052 142.876 441.652 133.676C467.652 121.676 489.252 104.876 501.652 86.876C487.252 85.276 470.452 87.276 453.652 91.676C451.652 92.076 449.252 90.876 448.852 88.876C448.452 86.876 449.652 84.476 451.652 84.076C472.452 78.476 492.452 76.876 509.252 79.676C510.452 80.076 511.652 80.876 512.052 82.076C512.452 83.276 512.452 84.476 512.052 85.676C499.252 107.276 474.852 127.276 445.252 140.876C424.052 150.476 402.852 155.676 382.852 156.876Z" fill="black"/>
<path d="M428.452 4.076C431.252 20.076 430.052 39.276 424.052 60.076L368.452 134.476L361.252 129.276C362.052 110.876 365.252 90.076 374.452 69.276C388.852 39.276 408.852 16.076 428.452 4.076Z" fill="#7CB342"/>
<path d="M359.652 133.276C359.652 133.276 359.252 133.276 359.652 133.276C357.252 133.276 355.652 131.276 355.652 129.276C356.452 109.676 362.052 88.476 371.652 67.676C385.252 37.676 405.252 13.276 426.852 0.876001C428.052 0.076001 429.252 0.076001 430.452 0.876001C431.652 1.276 432.452 2.476 432.852 3.676C436.052 20.476 434.452 40.476 428.452 61.276C428.052 63.276 425.652 64.476 423.652 64.076C421.652 63.676 420.452 61.276 420.852 59.276C425.652 42.076 427.252 25.276 425.652 11.276C407.652 23.676 390.852 45.276 378.852 71.276C370.052 90.876 364.852 111.276 363.652 129.676C363.252 131.676 361.652 133.276 359.652 133.276Z" fill="black"/>
<path d="M476.852 35.676C472.852 58.476 458.052 85.276 434.452 108.476C416.452 126.476 396.452 139.276 378.052 146.476L364.052 123.676C370.852 112.876 393.652 88.076 403.652 78.076C427.252 54.476 454.052 39.676 476.852 35.676Z" fill="#7CB342"/>
<path d="M378.052 150.476C376.452 150.476 374.852 149.276 374.452 147.676C373.652 145.676 374.852 143.276 376.852 142.476C395.652 135.676 415.252 122.476 432.052 105.676C452.052 85.676 466.452 62.076 472.052 40.876C450.452 46.476 427.252 60.476 407.252 80.876C397.652 90.476 389.652 100.476 382.852 111.276C381.652 113.276 379.252 113.676 377.252 112.476C375.252 111.276 374.852 108.876 376.052 106.876C383.252 95.676 391.652 84.876 401.652 74.876C424.852 51.676 452.052 35.676 476.852 31.276C478.052 30.876 479.652 31.276 480.452 32.476C481.252 33.276 481.652 34.876 481.652 36.076C477.252 60.476 461.252 88.076 438.052 111.276C420.452 128.876 399.652 142.876 380.052 150.076C378.852 150.076 378.452 150.476 378.052 150.476Z" fill="black"/>
<path d="M4.85201 480.076C37.652 392.076 218.052 169.276 247.652 139.676C282.052 105.276 337.652 105.276 372.052 139.676C406.452 174.076 406.452 229.676 372.052 264.076C352.452 283.676 249.652 368.476 156.452 433.276C108.052 467.276 62.052 495.676 32.052 506.876C24.852 508.876 16.452 506.876 10.852 501.276C4.85201 495.676 2.85201 487.676 4.85201 480.076Z" fill="#FB8C00"/>
<path d="M26.052 512.076C19.252 512.076 12.452 509.276 7.652 504.476C1.252 498.076 -1.548 488.476 0.852003 479.276V478.876C34.052 389.676 214.852 167.276 244.852 137.276C280.852 101.276 338.852 101.276 374.852 137.276C392.052 154.476 401.652 177.676 401.652 202.076C401.652 226.476 392.052 249.676 374.852 266.876C355.652 286.076 254.052 370.076 158.452 436.476C102.852 475.276 60.452 500.476 32.852 510.476C30.852 511.676 28.452 512.076 26.052 512.076ZM8.852 481.276C7.252 487.676 9.252 494.076 13.652 498.476C18.052 502.876 24.852 504.876 31.252 503.276C57.652 493.276 99.252 468.876 154.452 430.076C248.052 364.876 351.252 279.676 369.652 261.276C385.652 245.276 394.052 224.476 394.052 202.076C394.052 179.676 385.252 158.476 369.652 142.876C336.852 110.076 283.652 110.076 250.852 142.876C220.852 172.476 41.652 392.876 8.852 481.276Z" fill="black"/>
<path d="M373.652 260.876C372.452 260.876 371.652 260.476 370.852 259.676L334.052 222.876C332.452 221.276 332.452 218.876 334.052 217.276C335.652 215.676 338.052 215.676 339.652 217.276L376.452 254.076C378.052 255.676 378.052 258.076 376.452 259.676C376.052 260.476 374.852 260.876 373.652 260.876Z" fill="black"/>
<path d="M238.052 181.676C236.852 181.676 236.052 181.276 235.252 180.476L224.052 169.276C222.452 167.676 222.452 165.276 224.052 163.676C225.652 162.076 228.052 162.076 229.652 163.676L240.852 174.876C242.452 176.476 242.452 178.876 240.852 180.476C240.052 181.276 239.252 181.676 238.052 181.676Z" fill="black"/>
<path d="M320.052 263.676C318.852 263.676 318.052 263.276 317.252 262.476L280.452 225.676C278.852 224.076 278.852 221.676 280.452 220.076C282.052 218.476 284.452 218.476 286.052 220.076L322.852 256.876C324.452 258.476 324.452 260.876 322.852 262.476C322.052 263.276 321.252 263.676 320.052 263.676Z" fill="black"/>
<path d="M232.452 232.476C231.252 232.476 230.452 232.076 229.652 231.276L198.452 200.076C196.852 198.476 196.852 196.076 198.452 194.476C200.052 192.876 202.452 192.876 204.052 194.476L235.252 225.676C236.852 227.276 236.852 229.676 235.252 231.276C234.452 232.076 233.252 232.476 232.452 232.476Z" fill="black"/>
<path d="M297.652 297.276C296.452 297.276 295.652 296.876 294.852 296.076L272.052 273.276C270.452 271.676 270.452 269.276 272.052 267.676C273.652 266.076 276.052 266.076 277.652 267.676L300.452 290.476C302.052 292.076 302.052 294.476 300.452 296.076C299.652 296.876 298.452 297.276 297.652 297.276Z" fill="black"/>
<path d="M283.252 340.076C282.052 340.076 281.252 339.676 280.452 338.876L232.452 290.876C230.852 289.276 230.852 286.876 232.452 285.276C234.052 283.676 236.452 283.676 238.052 285.276L286.052 333.276C287.652 334.876 287.652 337.276 286.052 338.876C285.252 339.676 284.452 340.076 283.252 340.076Z" fill="black"/>
<path d="M187.252 243.676C186.052 243.676 185.252 243.276 184.452 242.476L173.252 231.276C171.652 229.676 171.652 227.276 173.252 225.676C174.852 224.076 177.252 224.076 178.852 225.676L190.052 236.876C191.652 238.476 191.652 240.876 190.052 242.476C189.252 243.276 188.052 243.676 187.252 243.676Z" fill="black"/>
<path d="M195.652 308.876C194.452 308.876 193.652 308.476 192.852 307.676L147.652 262.476C146.052 260.876 146.052 258.476 147.652 256.876C149.252 255.276 151.652 255.276 153.252 256.876L198.452 302.076C200.052 303.676 200.052 306.076 198.452 307.676C197.652 308.476 196.452 308.876 195.652 308.876Z" fill="black"/>
<path d="M218.452 388.076C217.252 388.076 216.452 387.676 215.652 386.876L190.052 361.276C188.452 359.676 188.452 357.276 190.052 355.676C191.652 354.076 194.052 354.076 195.652 355.676L221.252 381.276C222.852 382.876 222.852 385.276 221.252 386.876C220.452 387.676 219.252 388.076 218.452 388.076Z" fill="black"/>
<path d="M153.252 379.676C152.052 379.676 151.252 379.276 150.452 378.476L116.452 344.476C114.852 342.876 114.852 340.476 116.452 338.876C118.052 337.276 120.452 337.276 122.052 338.876L156.052 372.876C157.652 374.476 157.652 376.876 156.052 378.476C155.252 379.276 154.052 379.676 153.252 379.676Z" fill="black"/>
<path d="M156.452 437.676C155.252 437.676 154.452 437.276 153.652 436.476L125.652 408.476C124.052 406.876 124.052 404.476 125.652 402.876C127.252 401.276 129.652 401.276 131.252 402.876L159.252 430.876C160.852 432.476 160.852 434.876 159.252 436.476C158.452 437.276 157.652 437.676 156.452 437.676Z" fill="black"/>
<path d="M88.852 369.676C87.652 369.676 86.852 369.276 86.052 368.476L77.652 360.076C76.052 358.476 76.052 356.076 77.652 354.476C79.252 352.876 81.652 352.876 83.252 354.476L91.652 362.876C93.252 364.476 93.252 366.876 91.652 368.476C90.852 369.276 89.652 369.676 88.852 369.676Z" fill="black"/>
<path d="M119.252 458.876C118.052 458.876 117.252 458.476 116.452 457.676L105.252 446.476C103.652 444.876 103.652 442.476 105.252 440.876C106.852 439.276 109.252 439.276 110.852 440.876L122.052 452.076C123.652 453.676 123.652 456.076 122.052 457.676C121.252 458.476 120.452 458.876 119.252 458.876Z" fill="black"/>
<path d="M65.652 461.676C64.452 461.676 63.652 461.276 62.852 460.476L31.652 429.276C30.052 427.676 30.052 425.276 31.652 423.676C33.252 422.076 35.652 422.076 37.252 423.676L68.452 454.876C70.052 456.476 70.052 458.876 68.452 460.476C67.652 461.276 66.452 461.676 65.652 461.676Z" fill="black"/>
<path d="M350.052 120.076L386.852 158.476C379.652 160.476 368.852 156.876 360.052 148.076C350.852 138.876 347.252 127.276 350.052 120.076Z" fill="#7CB342"/>
<path d="M382.852 166.876C374.852 166.876 365.252 162.476 357.652 154.876C347.252 144.476 343.252 131.676 346.852 122.476C347.652 120.476 350.052 119.276 352.052 120.476C354.052 121.276 355.252 123.676 354.052 125.676C352.052 130.876 354.452 140.476 363.252 149.276C370.452 156.476 380.052 160.476 386.052 158.476C388.052 157.676 390.452 159.276 390.852 161.276C391.652 163.276 390.052 165.676 388.052 166.076C386.452 166.876 384.452 166.876 382.852 166.876Z" fill="black"/>
</g>
<defs>
<clipPath id="clip0_2_11">
<rect width="512.352" height="512.352" fill="white"/>
</clipPath>
</defs>
</svg>
