<svg width="238" height="82" viewBox="0 0 238 82" fill="none" xmlns="http://www.w3.org/2000/svg">
<path d="M30.5 8.5C30.5 8.5 42.9322 7.29712 52.5 8.5C57.2991 11.8545 70.5 51 70.5 51L88.5 80C55.2439 79.8054 40.5 82 35.5 75.5C30.5 69 30.5 62 30.5 62C24.7408 61.5465 21.4282 62.0843 13 55C16.0264 48.9356 18.0423 45.7709 23.5 41.5C15.4139 39.1101 11.1929 36.8662 5 29C0.67581 16.1743 0.402857 10.9402 2 3.5C14.6618 2.82957 30.5 8.5 30.5 8.5Z" fill="#D9D9D9" stroke="#403939" stroke-width="2" stroke-linejoin="round"/>
<path d="M236.5 1C217.87 16.1937 179.216 -3.78523 164 3.5C148.784 10.7852 135.627 39.6021 129.5 69.5C164.176 76.4611 180.347 74.7245 201 57.5C200.078 55.2949 198.977 54.2204 194.5 53C206.917 51.2383 212.71 47.6297 220.5 35.5C214.111 32.6687 201 35.5 201 35.5C201 35.5 207.799 31.7439 218.5 22.5C224.993 16.8905 228.779 10.9597 236.5 1Z" fill="#D9D9D9" stroke="#403939" stroke-width="2" stroke-linejoin="round"/>
</svg>
